<?xml version="1.0" encoding="UTF-8" standalone="no"?>
<!DOCTYPE svg PUBLIC "-//W3C//DTD SVG 1.1//EN"
 "http://www.w3.org/Graphics/SVG/1.1/DTD/svg11.dtd">
<!-- Generated by graphviz version 10.0.1 (0)
 -->
<!-- Title: G Pages: 1 -->
<svg width="273pt" height="55pt"
 viewBox="0.00 0.00 272.50 54.90" xmlns="http://www.w3.org/2000/svg" xmlns:xlink="http://www.w3.org/1999/xlink">
<g id="graph0" class="graph" transform="scale(1 1) rotate(0) translate(4 50.9)">
<title>G</title>
<polygon fill="white" stroke="none" points="-4,4 -4,-50.9 268.5,-50.9 268.5,4 -4,4"/>
<!-- A -->
<g id="node1" class="node">
<title>A</title>
<polygon fill="none" stroke="black" points="59.5,-46.9 0,-46.9 0,-10.9 59.5,-10.9 59.5,-46.9"/>
<text text-anchor="middle" x="29.75" y="-24.23" font-family="Times,serif" font-size="14.00">online</text>
</g>
<!-- B -->
<g id="node2" class="node">
<title>B</title>
<polygon fill="none" stroke="black" points="264.5,-46.9 204.25,-46.9 204.25,-10.9 264.5,-10.9 264.5,-46.9"/>
<text text-anchor="middle" x="234.38" y="-24.23" font-family="Times,serif" font-size="14.00">offline</text>
</g>
<!-- A&#45;&gt;B -->
<g id="edge1" class="edge">
<title>A&#45;&gt;B</title>
<path fill="none" stroke="black" d="M59.78,-28.9C94.66,-28.9 153.4,-28.9 192.77,-28.9"/>
<polygon fill="black" stroke="black" points="192.56,-32.4 202.56,-28.9 192.56,-25.4 192.56,-32.4"/>
<text text-anchor="middle" x="131.88" y="-32.85" font-family="Times,serif" font-size="14.00">unsigned PSBT</text>
</g>
<!-- B&#45;&gt;A -->
<g id="edge2" class="edge">
<title>B&#45;&gt;A</title>
<path fill="none" stroke="black" d="M203.86,-13.32C198.16,-10.97 192.13,-8.92 186.25,-7.65 139,2.51 124.74,2.58 77.5,-7.65 75.19,-8.15 72.85,-8.78 70.52,-9.5"/>
<polygon fill="black" stroke="black" points="69.38,-6.19 61.19,-12.91 71.79,-12.76 69.38,-6.19"/>
<text text-anchor="middle" x="131.88" y="-11.85" font-family="Times,serif" font-size="14.00">signed PSBT</text>
</g>
</g>
</svg>
